<svg width="116" height="21" viewBox="0 0 116 21" fill="none" xmlns="http://www.w3.org/2000/svg">
<path d="M11.5303 14.1992C11.5303 14.1901 11.5348 14.1628 11.5439 14.1172C11.5622 14.0716 11.5804 14.0215 11.5986 13.9668C11.626 13.9121 11.6488 13.8574 11.667 13.8027C11.6852 13.748 11.6989 13.7025 11.708 13.666V13.6387V13.6113C11.5895 13.6022 11.43 13.584 11.2295 13.5566C11.029 13.5293 10.8376 13.4837 10.6553 13.4199C10.473 13.347 10.3135 13.2559 10.1768 13.1465C10.04 13.0371 9.97168 12.8867 9.97168 12.6953C9.97168 12.513 10.0355 12.3672 10.1631 12.2578C10.2907 12.1393 10.4456 12.0482 10.6279 11.9844C10.8102 11.9115 10.9971 11.8613 11.1885 11.834C11.3799 11.8066 11.5394 11.793 11.667 11.793C11.8402 11.793 11.986 11.7975 12.1045 11.8066C12.223 11.8066 12.3734 11.8249 12.5557 11.8613V11.6699L14.5928 7.71875L12.7197 8.12891H12.3096C12.2093 8.12891 12.0771 8.12435 11.9131 8.11523C11.749 8.10612 11.5895 8.08333 11.4346 8.04688C11.2796 8.0013 11.1429 7.9375 11.0244 7.85547C10.915 7.77344 10.8604 7.65039 10.8604 7.48633C10.8604 7.27669 10.8877 7.08984 10.9424 6.92578C11.0062 6.7526 11.1566 6.66602 11.3936 6.66602C11.4938 6.66602 11.5622 6.70247 11.5986 6.77539C11.6442 6.84831 11.6715 6.93034 11.6807 7.02148C11.6989 7.11263 11.7217 7.20378 11.749 7.29492C11.7764 7.37695 11.8311 7.4362 11.9131 7.47266C11.9404 7.47266 11.9769 7.47266 12.0225 7.47266C12.0771 7.47266 12.1318 7.47721 12.1865 7.48633C12.2503 7.48633 12.3096 7.48633 12.3643 7.48633C12.4189 7.48633 12.46 7.48633 12.4873 7.48633C12.6787 7.48633 12.8519 7.47721 13.0068 7.45898C13.1709 7.44076 13.3258 7.41797 13.4717 7.39062C13.6266 7.35417 13.777 7.30859 13.9229 7.25391C14.0778 7.19922 14.251 7.13542 14.4424 7.0625C14.5609 7.01693 14.6794 6.94401 14.7979 6.84375C14.9163 6.73438 15.0303 6.62956 15.1396 6.5293C15.2581 6.41992 15.3766 6.32878 15.4951 6.25586C15.6136 6.17383 15.7367 6.13281 15.8643 6.13281C16.0374 6.13281 16.124 6.22852 16.124 6.41992C16.124 6.49284 16.1195 6.55664 16.1104 6.61133C16.1012 6.66602 16.0785 6.72982 16.042 6.80273L13.3076 11.8613V12.0664C13.8089 12.2396 14.2555 12.4811 14.6475 12.791H14.7295L16.9717 12.4629L17.1084 12.4082C17.1357 12.3262 17.1813 12.1986 17.2451 12.0254C17.318 11.8522 17.3955 11.6699 17.4775 11.4785C17.5596 11.278 17.637 11.0911 17.71 10.918C17.7829 10.7357 17.8285 10.6081 17.8467 10.5352C17.8649 10.5169 17.8877 10.4714 17.915 10.3984C17.9424 10.3255 17.9652 10.2799 17.9834 10.2617L19.1729 7.19922C19.2093 7.13542 19.2686 7.07617 19.3506 7.02148C19.4417 6.9668 19.5192 6.93945 19.583 6.93945C19.7015 6.93945 19.7744 6.99414 19.8018 7.10352C19.8382 7.20378 19.8564 7.29492 19.8564 7.37695V7.47266L18.4482 11.0684C18.4118 11.1413 18.3662 11.237 18.3115 11.3555C18.266 11.4648 18.2204 11.5742 18.1748 11.6836C18.1292 11.793 18.0882 11.8978 18.0518 11.998C18.0244 12.0983 18.0016 12.1667 17.9834 12.2031C18.0107 12.2031 18.0518 12.1986 18.1064 12.1895C18.1611 12.1712 18.2204 12.1576 18.2842 12.1484C18.348 12.1393 18.4072 12.1257 18.4619 12.1074C18.5257 12.0892 18.5622 12.0755 18.5713 12.0664C18.6351 12.0482 18.7399 12.0117 18.8857 11.957C19.0316 11.9023 19.1865 11.8431 19.3506 11.7793C19.5146 11.7064 19.6696 11.6426 19.8154 11.5879C19.9613 11.5332 20.0615 11.4922 20.1162 11.4648C20.1618 11.3919 20.2256 11.3281 20.3076 11.2734C20.3988 11.2188 20.4899 11.1914 20.5811 11.1914C20.6357 11.1914 20.6813 11.2096 20.7178 11.2461C20.7633 11.2826 20.7861 11.3327 20.7861 11.3965C20.7861 11.4967 20.7497 11.5879 20.6768 11.6699C20.6038 11.752 20.5173 11.834 20.417 11.916C20.3167 11.9889 20.2119 12.0482 20.1025 12.0938C19.9932 12.1393 19.9111 12.1758 19.8564 12.2031L17.7373 12.9414L16.4521 16.4688C16.4339 16.5599 16.4066 16.6875 16.3701 16.8516C16.3428 17.0065 16.2972 17.1615 16.2334 17.3164C16.1787 17.4714 16.1058 17.6035 16.0146 17.7129C15.9235 17.8223 15.8141 17.877 15.6865 17.877C15.5498 17.877 15.445 17.7858 15.3721 17.6035C15.2992 17.4212 15.2445 17.1934 15.208 16.9199C15.1807 16.6374 15.1533 16.3275 15.126 15.9902C15.1077 15.653 15.0713 15.3203 15.0166 14.9922C14.971 14.6641 14.8981 14.3724 14.7979 14.1172C14.6976 13.862 14.5563 13.6706 14.374 13.543C14.3649 13.543 14.3239 13.5384 14.251 13.5293C14.1781 13.5202 14.137 13.5156 14.1279 13.5156C14.0915 13.5156 14.0368 13.5202 13.9639 13.5293C13.9001 13.5384 13.8636 13.543 13.8545 13.543C13.7633 13.5521 13.6449 13.5658 13.499 13.584C13.3532 13.5931 13.2119 13.6068 13.0752 13.625C12.9476 13.6341 12.8337 13.6432 12.7334 13.6523C12.6331 13.6615 12.583 13.666 12.583 13.666L12.5283 13.7344L11.1201 16.7285C11.0837 16.9746 11.0016 17.1842 10.874 17.3574C10.7464 17.5306 10.6279 17.7266 10.5186 17.9453C10.4912 17.9453 10.432 17.9544 10.3408 17.9727C10.2588 17.9909 10.2087 18 10.1904 18C10.1813 18 10.1494 17.9909 10.0947 17.9727C10.0492 17.9544 10.0127 17.9453 9.98535 17.9453C9.96712 17.9362 9.93978 17.9225 9.90332 17.9043C9.86686 17.8861 9.84863 17.8724 9.84863 17.8633V17.5352L11.5303 14.1992ZM15.1943 13.4336C15.1943 13.5247 15.2262 13.6706 15.29 13.8711C15.3538 14.0625 15.4268 14.2767 15.5088 14.5137C15.5999 14.7507 15.682 14.9831 15.7549 15.2109C15.8369 15.4297 15.8916 15.6029 15.9189 15.7305C15.9281 15.694 15.9463 15.6257 15.9736 15.5254C16.0101 15.416 16.0465 15.3066 16.083 15.1973C16.1195 15.0788 16.1514 14.974 16.1787 14.8828C16.2061 14.7826 16.2288 14.7096 16.2471 14.6641C16.2562 14.6549 16.2699 14.6322 16.2881 14.5957C16.3063 14.5592 16.32 14.5365 16.3291 14.5273C16.3564 14.4362 16.3975 14.3223 16.4521 14.1855C16.5068 14.0488 16.557 13.9121 16.6025 13.7754C16.6572 13.6387 16.7028 13.5202 16.7393 13.4199C16.7757 13.3197 16.7939 13.2695 16.7939 13.2695V13.1328C16.7757 13.1328 16.7529 13.1328 16.7256 13.1328C16.6982 13.1328 16.6755 13.1374 16.6572 13.1465C16.6025 13.1465 16.5023 13.1602 16.3564 13.1875C16.2197 13.2148 16.0739 13.2422 15.9189 13.2695C15.764 13.2969 15.6136 13.3242 15.4678 13.3516C15.3311 13.3789 15.2399 13.3926 15.1943 13.3926V13.4336ZM10.9287 12.668C11.0563 12.7682 11.2113 12.8366 11.3936 12.873C11.585 12.9095 11.7627 12.9277 11.9268 12.9277C11.9997 12.9277 12.0589 12.8867 12.1045 12.8047C12.1501 12.7135 12.1729 12.6361 12.1729 12.5723V12.5312C12.1546 12.5312 12.0908 12.5221 11.9814 12.5039C11.8721 12.4766 11.8083 12.4629 11.79 12.4629C11.7809 12.4629 11.7354 12.4674 11.6533 12.4766C11.5713 12.4766 11.4756 12.4857 11.3662 12.5039C11.266 12.5221 11.1702 12.5449 11.0791 12.5723C10.988 12.5996 10.9378 12.6315 10.9287 12.668ZM13.0752 12.7227C12.9567 12.7227 12.8975 12.791 12.8975 12.9277H13.4443L13.5127 12.873C13.4489 12.8275 13.3805 12.791 13.3076 12.7637C13.2347 12.7363 13.1572 12.7227 13.0752 12.7227ZM20.0205 15.8672C20.0387 15.8125 20.0661 15.7168 20.1025 15.5801C20.1481 15.4342 20.1891 15.2793 20.2256 15.1152C20.2712 14.9512 20.3076 14.7962 20.335 14.6504C20.3714 14.4954 20.3988 14.3906 20.417 14.3359C20.4717 14.1172 20.5355 13.8802 20.6084 13.625C20.6904 13.3698 20.7998 13.1328 20.9365 12.9141C21.0732 12.6953 21.2464 12.5176 21.4561 12.3809C21.6748 12.235 21.9437 12.1621 22.2627 12.1621C22.3812 12.1621 22.4632 12.2077 22.5088 12.2988C22.5635 12.3809 22.609 12.472 22.6455 12.5723C22.6455 12.6087 22.6455 12.6771 22.6455 12.7773C22.6546 12.8685 22.6592 12.9323 22.6592 12.9688C22.6592 13.3607 22.6182 13.707 22.5361 14.0078C22.4632 14.3086 22.3447 14.5866 22.1807 14.8418C22.0257 15.097 21.8343 15.3385 21.6064 15.5664C21.3786 15.7852 21.1188 16.0176 20.8271 16.2637C20.818 16.291 20.8044 16.3366 20.7861 16.4004C20.7679 16.4642 20.7588 16.5098 20.7588 16.5371V16.5645C20.7588 16.7285 20.7861 16.8607 20.8408 16.9609C20.8955 17.0612 20.9684 17.1432 21.0596 17.207C21.1598 17.2617 21.2692 17.2982 21.3877 17.3164C21.5153 17.3255 21.652 17.3301 21.7979 17.3301C22.2262 17.3301 22.6364 17.2708 23.0283 17.1523C23.4202 17.0339 23.7803 16.8424 24.1084 16.5781C24.154 16.5326 24.2087 16.4688 24.2725 16.3867C24.3454 16.2956 24.4183 16.2044 24.4912 16.1133C24.5641 16.0221 24.6416 15.9447 24.7236 15.8809C24.8057 15.8079 24.8923 15.7715 24.9834 15.7715C25.0745 15.7715 25.1292 15.8079 25.1475 15.8809C25.1657 15.9538 25.1748 16.0267 25.1748 16.0996C25.1748 16.3001 25.111 16.4915 24.9834 16.6738C24.8649 16.847 24.7054 17.0065 24.5049 17.1523C24.3135 17.2891 24.0902 17.4121 23.835 17.5215C23.5889 17.6309 23.3428 17.722 23.0967 17.7949C22.8506 17.8678 22.6136 17.9225 22.3857 17.959C22.167 17.9954 21.9801 18.0137 21.8252 18.0137C21.3421 18.0137 20.9365 17.9362 20.6084 17.7812C20.2894 17.6172 20.0706 17.2936 19.9521 16.8105L20.0205 15.8672ZM21.9756 13.1738C21.7933 13.3379 21.6475 13.4883 21.5381 13.625C21.4378 13.7526 21.3558 13.8893 21.292 14.0352C21.2373 14.1719 21.1872 14.3223 21.1416 14.4863C21.1051 14.6504 21.0641 14.8418 21.0186 15.0605C21.1917 14.9238 21.333 14.7871 21.4424 14.6504C21.5609 14.5137 21.6566 14.3724 21.7295 14.2266C21.8024 14.0807 21.8571 13.9258 21.8936 13.7617C21.93 13.5885 21.9574 13.3926 21.9756 13.1738ZM24.5596 16.373C24.8148 16.1816 25.0016 15.9948 25.1201 15.8125C25.2477 15.6302 25.348 15.4479 25.4209 15.2656C25.4938 15.0833 25.5531 14.8919 25.5986 14.6914C25.6442 14.4818 25.7171 14.2539 25.8174 14.0078C25.7809 13.944 25.7581 13.8893 25.749 13.8438C25.749 13.7891 25.749 13.7253 25.749 13.6523C25.749 13.5794 25.7581 13.4928 25.7764 13.3926C25.8037 13.2923 25.8402 13.2012 25.8857 13.1191C25.9313 13.028 25.986 12.9505 26.0498 12.8867C26.1136 12.8229 26.1911 12.791 26.2822 12.791C26.2731 12.8275 26.3232 12.8685 26.4326 12.9141C26.5511 12.9596 26.6924 13.0098 26.8564 13.0645C27.0296 13.1191 27.2119 13.1784 27.4033 13.2422C27.5947 13.306 27.7633 13.3743 27.9092 13.4473C28.0732 13.5384 28.1872 13.6387 28.251 13.748C28.3239 13.8483 28.3604 13.9941 28.3604 14.1855C28.3604 14.3587 28.3376 14.5547 28.292 14.7734C28.2555 14.9922 28.2145 15.2155 28.1689 15.4434C28.1325 15.6621 28.0915 15.8854 28.0459 16.1133C28.0094 16.332 27.9912 16.5326 27.9912 16.7148V17.0703C27.9821 17.1523 28.0003 17.1979 28.0459 17.207C28.1006 17.207 28.1507 17.207 28.1963 17.207C28.3057 17.207 28.4059 17.1888 28.4971 17.1523C28.5882 17.1159 28.6794 17.0749 28.7705 17.0293C28.8708 16.9837 28.9665 16.9427 29.0576 16.9062C29.1488 16.8607 29.2445 16.8288 29.3447 16.8105L30.5479 16.0723C30.5843 16.0085 30.6299 15.9583 30.6846 15.9219C30.7484 15.8763 30.8076 15.8353 30.8623 15.7988C30.9535 15.7441 31.0628 15.6667 31.1904 15.5664C31.2542 15.5117 31.3226 15.457 31.3955 15.4023H31.8057C31.833 15.4023 31.8512 15.4297 31.8604 15.4844C31.8695 15.5391 31.874 15.5801 31.874 15.6074C31.874 15.7168 31.7965 15.8535 31.6416 16.0176C31.4867 16.1816 31.2861 16.3503 31.04 16.5234C30.7939 16.6966 30.5205 16.8698 30.2197 17.043C29.9189 17.207 29.6227 17.3574 29.3311 17.4941C29.0485 17.6309 28.7842 17.7402 28.5381 17.8223C28.3011 17.9043 28.1188 17.9453 27.9912 17.9453C27.8271 17.9453 27.695 17.9043 27.5947 17.8223C27.4945 17.7402 27.4124 17.64 27.3486 17.5215C27.2848 17.403 27.2393 17.2754 27.2119 17.1387C27.1937 16.9928 27.1846 16.8516 27.1846 16.7148C27.1846 16.6146 27.2165 16.4733 27.2803 16.291C27.3441 16.1087 27.417 15.9219 27.499 15.7305C27.5811 15.5391 27.654 15.3522 27.7178 15.1699C27.7816 14.9876 27.8135 14.8418 27.8135 14.7324C27.8135 14.7233 27.7451 14.6868 27.6084 14.623C27.4808 14.5592 27.3395 14.4909 27.1846 14.418C27.0296 14.3359 26.8838 14.2676 26.7471 14.2129C26.6195 14.1491 26.5557 14.1126 26.5557 14.1035C26.3551 14.3132 26.2139 14.5365 26.1318 14.7734C26.0589 15.0104 25.9814 15.2565 25.8994 15.5117C25.8265 15.7669 25.7126 16.0221 25.5576 16.2773C25.4118 16.5326 25.1611 16.7832 24.8057 17.0293C24.7965 17.0293 24.7783 17.0247 24.751 17.0156C24.7145 17.0065 24.6826 16.9837 24.6553 16.9473C24.6188 16.9017 24.5915 16.8379 24.5732 16.7559C24.555 16.6647 24.5505 16.5371 24.5596 16.373ZM32.4482 16.127C32.4391 16.127 32.4255 16.1406 32.4072 16.168C32.3981 16.1862 32.3844 16.1999 32.3662 16.209C32.2568 16.4004 32.1702 16.5872 32.1064 16.7695C32.0426 16.9518 31.9788 17.1615 31.915 17.3984C31.8512 17.4896 31.7829 17.5488 31.71 17.5762C31.6462 17.5944 31.5687 17.6035 31.4775 17.6035C31.2679 17.6035 31.1631 17.5124 31.1631 17.3301C31.2633 16.929 31.3499 16.6055 31.4229 16.3594C31.4958 16.1042 31.5596 15.89 31.6143 15.7168C31.6689 15.5345 31.7145 15.375 31.751 15.2383C31.7965 15.1016 31.8421 14.9648 31.8877 14.8281C31.9333 14.6823 31.9788 14.5137 32.0244 14.3223C32.0791 14.1309 32.1383 13.8939 32.2021 13.6113C32.2751 13.3197 32.3571 12.9642 32.4482 12.5449C32.5394 12.1257 32.6488 11.6107 32.7764 11L33.2412 9.85156C33.2777 9.76953 33.3187 9.7194 33.3643 9.70117C33.4189 9.67383 33.4782 9.66016 33.542 9.66016C33.624 9.66016 33.7015 9.6875 33.7744 9.74219C33.8473 9.78776 33.8929 9.85612 33.9111 9.94727C33.9111 9.96549 33.9111 10.002 33.9111 10.0566C33.9111 10.1113 33.9111 10.1706 33.9111 10.2344C33.9202 10.2891 33.9248 10.3438 33.9248 10.3984C33.9248 10.444 33.9248 10.4805 33.9248 10.5078C33.9248 10.9909 33.8838 11.4056 33.8018 11.752C33.7288 12.0983 33.624 12.4219 33.4873 12.7227C33.3597 13.0234 33.2139 13.3242 33.0498 13.625C32.8949 13.9258 32.7399 14.2721 32.585 14.6641C32.8311 14.3815 33.1136 14.14 33.4326 13.9395C33.7516 13.7389 34.1025 13.6387 34.4854 13.6387C34.5218 13.6387 34.5902 13.6432 34.6904 13.6523C34.7998 13.6615 34.8727 13.666 34.9092 13.666C35.1006 13.7207 35.2646 13.8255 35.4014 13.9805C35.5472 14.1354 35.6611 14.3132 35.7432 14.5137C35.8252 14.7051 35.8844 14.9102 35.9209 15.1289C35.9574 15.3385 35.9756 15.5299 35.9756 15.7031C35.9756 15.8854 35.9574 16.0814 35.9209 16.291C35.8844 16.4915 35.8389 16.6829 35.7842 16.8652H35.9209L37.9033 16.3457C38.0856 16.291 38.2679 16.1953 38.4502 16.0586C38.6416 15.9219 38.7965 15.7943 38.915 15.6758H38.9424C38.9515 15.6758 38.9561 15.6758 38.9561 15.6758C38.9652 15.6667 38.9743 15.6621 38.9834 15.6621C39.0654 15.6621 39.1292 15.6895 39.1748 15.7441C39.2295 15.7897 39.2568 15.8535 39.2568 15.9355C39.2568 16.0996 39.1885 16.25 39.0518 16.3867C38.9242 16.5234 38.7692 16.6419 38.5869 16.7422C38.4046 16.8333 38.2178 16.9154 38.0264 16.9883C37.835 17.0521 37.6846 17.0977 37.5752 17.125C37.484 17.1523 37.3245 17.1979 37.0967 17.2617C36.8779 17.3164 36.641 17.3757 36.3857 17.4395C36.1305 17.5033 35.8844 17.5625 35.6475 17.6172C35.4196 17.6719 35.2646 17.7083 35.1826 17.7266C35.0459 17.7995 34.9183 17.8678 34.7998 17.9316C34.6813 17.9863 34.5492 18.0137 34.4033 18.0137C34.1937 18.0137 33.9613 17.9635 33.7061 17.8633C33.46 17.7539 33.2321 17.6172 33.0225 17.4531C32.8219 17.2799 32.6579 17.0794 32.5303 16.8516C32.4118 16.6237 32.3844 16.3822 32.4482 16.127ZM32.7764 15.9219C32.9131 15.9219 33.0225 15.9811 33.1045 16.0996C33.1956 16.209 33.2959 16.332 33.4053 16.4688C33.5146 16.6055 33.6514 16.7285 33.8154 16.8379C33.9886 16.9473 34.2347 17.002 34.5537 17.002H34.8408C34.9229 16.9199 34.9867 16.8151 35.0322 16.6875C35.0869 16.5599 35.1234 16.4323 35.1416 16.3047C35.1689 16.168 35.1826 16.0312 35.1826 15.8945C35.1826 15.7578 35.1826 15.6302 35.1826 15.5117C35.1826 15.3841 35.1689 15.252 35.1416 15.1152C35.1143 14.9694 35.0687 14.8372 35.0049 14.7188C34.9411 14.6003 34.8499 14.5046 34.7314 14.4316C34.6221 14.3587 34.4899 14.3223 34.335 14.3223C34.1527 14.3223 33.9613 14.3815 33.7607 14.5C33.5693 14.6094 33.3916 14.7507 33.2275 14.9238C33.0635 15.097 32.9176 15.2793 32.79 15.4707C32.6624 15.6621 32.5713 15.8353 32.5166 15.9902C32.5622 15.9538 32.6032 15.9355 32.6396 15.9355C32.6852 15.9264 32.7308 15.9219 32.7764 15.9219ZM46.3252 17.0703C46.3525 16.9701 46.3936 16.7923 46.4482 16.5371C46.512 16.2728 46.5758 15.9948 46.6396 15.7031C46.7035 15.4115 46.7627 15.138 46.8174 14.8828C46.8721 14.6276 46.9131 14.4453 46.9404 14.3359C46.9678 14.1992 46.9814 14.0306 46.9814 13.8301C46.9906 13.6296 46.9951 13.429 46.9951 13.2285C47.0042 13.028 47.0042 12.8411 46.9951 12.668C46.9951 12.4948 46.9951 12.3535 46.9951 12.2441V11.0684C46.9951 11.041 46.986 10.9681 46.9678 10.8496C46.9495 10.7311 46.9268 10.599 46.8994 10.4531C46.8812 10.3073 46.8584 10.166 46.8311 10.0293C46.8128 9.89258 46.7992 9.79232 46.79 9.72852C46.7718 9.62826 46.7445 9.51432 46.708 9.38672C46.6807 9.25911 46.6396 9.13607 46.585 9.01758C46.5303 8.89909 46.4574 8.79883 46.3662 8.7168C46.2751 8.63477 46.1611 8.59375 46.0244 8.59375C45.8604 8.59375 45.6507 8.65755 45.3955 8.78516C45.1403 8.90365 44.8896 9.05859 44.6436 9.25C44.3975 9.43229 44.1787 9.62826 43.9873 9.83789C43.7959 10.0475 43.6865 10.2389 43.6592 10.4121L43.2764 12.5996V12.668C43.2581 12.7591 43.2354 12.8822 43.208 13.0371C43.1807 13.1921 43.1488 13.3424 43.1123 13.4883C43.0758 13.6341 43.0485 13.7663 43.0303 13.8848C43.012 13.9941 42.9984 14.0579 42.9893 14.0762C42.971 14.1309 42.9437 14.222 42.9072 14.3496C42.8799 14.4772 42.8434 14.6139 42.7979 14.7598C42.7523 14.9056 42.7113 15.0423 42.6748 15.1699C42.6383 15.2884 42.611 15.3659 42.5928 15.4023C42.5745 15.4479 42.5335 15.5436 42.4697 15.6895C42.4059 15.8353 42.3376 15.9948 42.2646 16.168C42.1917 16.3411 42.1188 16.5052 42.0459 16.6602C41.9821 16.806 41.9456 16.8971 41.9365 16.9336C41.8818 17.0612 41.8317 17.1842 41.7861 17.3027C41.7497 17.4121 41.6995 17.5124 41.6357 17.6035C41.5811 17.6855 41.5081 17.7539 41.417 17.8086C41.3258 17.8542 41.2028 17.877 41.0479 17.877C41.0205 17.877 40.984 17.877 40.9385 17.877C40.8929 17.8678 40.8656 17.8633 40.8564 17.8633L40.8018 17.7266C40.8018 17.7174 40.7972 17.6947 40.7881 17.6582C40.7881 17.6217 40.7881 17.5807 40.7881 17.5352C40.7881 17.4805 40.7881 17.4349 40.7881 17.3984C40.7881 17.3529 40.7881 17.3164 40.7881 17.2891C40.7881 16.0768 40.9932 14.8919 41.4033 13.7344V13.666C41.4033 13.6478 41.4215 13.5749 41.458 13.4473C41.5036 13.3197 41.5537 13.1784 41.6084 13.0234C41.6631 12.8594 41.7178 12.6953 41.7725 12.5312C41.8363 12.3672 41.891 12.235 41.9365 12.1348C41.9639 12.0618 42.0186 11.9388 42.1006 11.7656C42.1917 11.5833 42.2874 11.3965 42.3877 11.2051C42.488 11.0046 42.5837 10.8177 42.6748 10.6445C42.766 10.4622 42.8298 10.3346 42.8662 10.2617C42.9118 10.1341 42.9346 9.99284 42.9346 9.83789C42.9346 9.68294 42.9346 9.53711 42.9346 9.40039C42.9346 9.37305 42.9346 9.33659 42.9346 9.29102C42.9346 9.23633 42.9346 9.18164 42.9346 9.12695C42.9346 9.07227 42.9346 9.02214 42.9346 8.97656C42.9346 8.92188 42.9346 8.88542 42.9346 8.86719C42.9072 8.64844 42.7842 8.53906 42.5654 8.53906H42.5244C42.488 8.54818 42.4378 8.56185 42.374 8.58008C42.3102 8.58919 42.2738 8.59375 42.2646 8.59375L39.7354 9.79688C39.5895 9.86979 39.4847 9.91536 39.4209 9.93359C39.3571 9.94271 39.2614 9.94727 39.1338 9.94727C38.9606 9.94727 38.8148 9.90625 38.6963 9.82422C38.5869 9.74219 38.5322 9.60091 38.5322 9.40039C38.5322 9.30924 38.5732 9.23177 38.6553 9.16797C38.7464 9.09505 38.833 9.05859 38.915 9.05859C39.0153 9.05859 39.0928 9.08594 39.1475 9.14062C39.2113 9.1862 39.2842 9.20898 39.3662 9.20898C39.6852 9.20898 39.986 9.13607 40.2686 8.99023C40.5511 8.83529 40.8291 8.67122 41.1025 8.49805C41.3851 8.32487 41.6722 8.16536 41.9639 8.01953C42.2555 7.8737 42.57 7.80078 42.9072 7.80078C43.0257 7.80078 43.126 7.83268 43.208 7.89648C43.2992 7.96029 43.3766 8.04232 43.4404 8.14258C43.5133 8.24284 43.568 8.34766 43.6045 8.45703C43.6501 8.55729 43.6956 8.64844 43.7412 8.73047C43.723 8.80339 43.7184 8.8763 43.7275 8.94922C43.7458 9.01302 43.7686 9.07227 43.7959 9.12695C43.96 8.98112 44.1286 8.83529 44.3018 8.68945C44.484 8.53451 44.6755 8.39779 44.876 8.2793C45.0765 8.16081 45.2861 8.06055 45.5049 7.97852C45.7236 7.89648 45.9424 7.85547 46.1611 7.85547C46.4437 7.85547 46.6761 7.93294 46.8584 8.08789C47.0498 8.23372 47.2002 8.42513 47.3096 8.66211C47.4281 8.89909 47.5146 9.16797 47.5693 9.46875C47.6331 9.76042 47.6787 10.0566 47.7061 10.3574C47.7425 10.6582 47.7699 10.9499 47.7881 11.2324C47.8063 11.5059 47.8291 11.7383 47.8564 11.9297C47.9749 11.6654 48.1208 11.3783 48.2939 11.0684C48.4762 10.7585 48.6768 10.4531 48.8955 10.1523C49.1143 9.85156 49.3558 9.56445 49.6201 9.29102C49.8844 9.01758 50.1624 8.77604 50.4541 8.56641C50.7458 8.35677 51.0465 8.18815 51.3564 8.06055C51.6755 7.93294 51.999 7.86914 52.3271 7.86914C52.7191 7.86914 53.0199 7.95573 53.2295 8.12891C53.4482 8.30208 53.6032 8.52539 53.6943 8.79883C53.7855 9.06315 53.8356 9.35938 53.8447 9.6875C53.863 10.0065 53.8721 10.3164 53.8721 10.6172V11.4648L53.3936 16.5371C53.3936 16.5462 53.3936 16.5827 53.3936 16.6465C53.3936 16.7012 53.3936 16.7422 53.3936 16.7695C53.3936 16.8607 53.3936 16.9427 53.3936 17.0156C53.3936 17.0885 53.4163 17.1751 53.4619 17.2754C53.4893 17.2754 53.5485 17.2799 53.6396 17.2891C53.7399 17.2891 53.8037 17.2891 53.8311 17.2891C54.2139 17.2891 54.5739 17.2298 54.9111 17.1113C55.2484 16.9928 55.5902 16.8424 55.9365 16.6602C56.0003 16.6237 56.0505 16.5918 56.0869 16.5645C56.1234 16.528 56.1598 16.5007 56.1963 16.4824C56.2327 16.4551 56.2738 16.4323 56.3193 16.4141C56.3649 16.3958 56.4242 16.3867 56.4971 16.3867C56.5791 16.3867 56.6383 16.3958 56.6748 16.4141C56.7113 16.4323 56.7295 16.487 56.7295 16.5781C56.7295 16.6966 56.6657 16.8151 56.5381 16.9336C56.4196 17.043 56.2601 17.1478 56.0596 17.248C55.8682 17.3483 55.654 17.444 55.417 17.5352C55.18 17.6172 54.9476 17.6901 54.7197 17.7539C54.501 17.8086 54.3005 17.8542 54.1182 17.8906C53.9359 17.9271 53.8037 17.9453 53.7217 17.9453C53.3024 17.9453 53.0062 17.8633 52.833 17.6992C52.6689 17.526 52.5869 17.2207 52.5869 16.7832V16.4004L53.0518 11.0684C53.0518 11.0592 53.0518 11.0319 53.0518 10.9863C53.0518 10.9316 53.0518 10.8724 53.0518 10.8086C53.0609 10.7357 53.0654 10.6673 53.0654 10.6035C53.0654 10.5306 53.0654 10.4759 53.0654 10.4395C53.0654 10.2845 53.07 10.1022 53.0791 9.89258C53.0882 9.68294 53.0745 9.48242 53.0381 9.29102C53.0016 9.09961 52.9287 8.93555 52.8193 8.79883C52.71 8.66211 52.5459 8.59375 52.3271 8.59375C52.236 8.59375 52.1266 8.61654 51.999 8.66211C51.8714 8.69857 51.7438 8.74414 51.6162 8.79883C51.4886 8.8444 51.3656 8.89453 51.2471 8.94922C51.1286 9.00391 51.042 9.04492 50.9873 9.07227C50.5407 9.29102 50.1442 9.5918 49.7979 9.97461C49.4515 10.3483 49.1462 10.7676 48.8818 11.2324C48.6175 11.6882 48.3942 12.1621 48.2119 12.6543C48.0387 13.1465 47.8975 13.6204 47.7881 14.0762C47.779 14.1764 47.7562 14.3496 47.7197 14.5957C47.6924 14.8327 47.6559 15.0924 47.6104 15.375C47.5739 15.6484 47.5329 15.9082 47.4873 16.1543C47.4508 16.3913 47.4235 16.5599 47.4053 16.6602C47.3779 16.806 47.3506 16.9609 47.3232 17.125C47.305 17.2799 47.2731 17.4258 47.2275 17.5625C47.182 17.6901 47.1136 17.7949 47.0225 17.877C46.9313 17.959 46.7992 18 46.626 18C46.5622 18 46.4938 17.9863 46.4209 17.959C46.3571 17.9316 46.3252 17.8815 46.3252 17.8086V17.0703ZM41.7314 15.2656C41.7132 15.2565 41.7041 15.2702 41.7041 15.3066C41.7041 15.334 41.7132 15.3431 41.7314 15.334C41.7497 15.3249 41.7588 15.3158 41.7588 15.3066C41.7588 15.2884 41.7497 15.2747 41.7314 15.2656ZM42.4561 12.5996C42.3923 12.6999 42.3193 12.8548 42.2373 13.0645C42.1644 13.2741 42.096 13.502 42.0322 13.748C41.9684 13.9941 41.9137 14.2357 41.8682 14.4727C41.8226 14.7096 41.7998 14.9056 41.7998 15.0605V15.1289C41.9821 14.7643 42.137 14.3633 42.2646 13.9258C42.3923 13.4792 42.4561 13.0508 42.4561 12.6406V12.5996ZM57.29 15.8672C57.3083 15.8125 57.3356 15.7168 57.3721 15.5801C57.4176 15.4342 57.4587 15.2793 57.4951 15.1152C57.5407 14.9512 57.5771 14.7962 57.6045 14.6504C57.641 14.4954 57.6683 14.3906 57.6865 14.3359C57.7412 14.1172 57.805 13.8802 57.8779 13.625C57.96 13.3698 58.0693 13.1328 58.2061 12.9141C58.3428 12.6953 58.516 12.5176 58.7256 12.3809C58.9443 12.235 59.2132 12.1621 59.5322 12.1621C59.6507 12.1621 59.7327 12.2077 59.7783 12.2988C59.833 12.3809 59.8786 12.472 59.915 12.5723C59.915 12.6087 59.915 12.6771 59.915 12.7773C59.9242 12.8685 59.9287 12.9323 59.9287 12.9688C59.9287 13.3607 59.8877 13.707 59.8057 14.0078C59.7327 14.3086 59.6143 14.5866 59.4502 14.8418C59.2952 15.097 59.1038 15.3385 58.876 15.5664C58.6481 15.7852 58.3883 16.0176 58.0967 16.2637C58.0876 16.291 58.0739 16.3366 58.0557 16.4004C58.0374 16.4642 58.0283 16.5098 58.0283 16.5371V16.5645C58.0283 16.7285 58.0557 16.8607 58.1104 16.9609C58.165 17.0612 58.238 17.1432 58.3291 17.207C58.4294 17.2617 58.5387 17.2982 58.6572 17.3164C58.7848 17.3255 58.9215 17.3301 59.0674 17.3301C59.4958 17.3301 59.9059 17.2708 60.2979 17.1523C60.6898 17.0339 61.0498 16.8424 61.3779 16.5781C61.4235 16.5326 61.4782 16.4688 61.542 16.3867C61.6149 16.2956 61.6878 16.2044 61.7607 16.1133C61.8337 16.0221 61.9111 15.9447 61.9932 15.8809C62.0752 15.8079 62.1618 15.7715 62.2529 15.7715C62.3441 15.7715 62.3988 15.8079 62.417 15.8809C62.4352 15.9538 62.4443 16.0267 62.4443 16.0996C62.4443 16.3001 62.3805 16.4915 62.2529 16.6738C62.1344 16.847 61.9749 17.0065 61.7744 17.1523C61.583 17.2891 61.3597 17.4121 61.1045 17.5215C60.8584 17.6309 60.6123 17.722 60.3662 17.7949C60.1201 17.8678 59.8831 17.9225 59.6553 17.959C59.4365 17.9954 59.2497 18.0137 59.0947 18.0137C58.6117 18.0137 58.2061 17.9362 57.8779 17.7812C57.5589 17.6172 57.3402 17.2936 57.2217 16.8105L57.29 15.8672ZM59.2451 13.1738C59.0628 13.3379 58.917 13.4883 58.8076 13.625C58.7074 13.7526 58.6253 13.8893 58.5615 14.0352C58.5068 14.1719 58.4567 14.3223 58.4111 14.4863C58.3747 14.6504 58.3337 14.8418 58.2881 15.0605C58.4613 14.9238 58.6025 14.7871 58.7119 14.6504C58.8304 14.5137 58.9261 14.3724 58.999 14.2266C59.0719 14.0807 59.1266 13.9258 59.1631 13.7617C59.1995 13.5885 59.2269 13.3926 59.2451 13.1738ZM64.1396 14.1992C64.1396 14.1901 64.1442 14.1628 64.1533 14.1172C64.1715 14.0716 64.1898 14.0215 64.208 13.9668C64.2354 13.9121 64.2581 13.8574 64.2764 13.8027C64.2946 13.748 64.3083 13.7025 64.3174 13.666V13.6387V13.6113C64.1989 13.6022 64.0394 13.584 63.8389 13.5566C63.6383 13.5293 63.4469 13.4837 63.2646 13.4199C63.0824 13.347 62.9229 13.2559 62.7861 13.1465C62.6494 13.0371 62.5811 12.8867 62.5811 12.6953C62.5811 12.513 62.6449 12.3672 62.7725 12.2578C62.9001 12.1393 63.055 12.0482 63.2373 11.9844C63.4196 11.9115 63.6064 11.8613 63.7979 11.834C63.9893 11.8066 64.1488 11.793 64.2764 11.793C64.4495 11.793 64.5954 11.7975 64.7139 11.8066C64.8324 11.8066 64.9827 11.8249 65.165 11.8613V11.6699L67.2021 7.71875L65.3291 8.12891H64.9189C64.8187 8.12891 64.6865 8.12435 64.5225 8.11523C64.3584 8.10612 64.1989 8.08333 64.0439 8.04688C63.889 8.0013 63.7523 7.9375 63.6338 7.85547C63.5244 7.77344 63.4697 7.65039 63.4697 7.48633C63.4697 7.27669 63.4971 7.08984 63.5518 6.92578C63.6156 6.7526 63.766 6.66602 64.0029 6.66602C64.1032 6.66602 64.1715 6.70247 64.208 6.77539C64.2536 6.84831 64.2809 6.93034 64.29 7.02148C64.3083 7.11263 64.3311 7.20378 64.3584 7.29492C64.3857 7.37695 64.4404 7.4362 64.5225 7.47266C64.5498 7.47266 64.5863 7.47266 64.6318 7.47266C64.6865 7.47266 64.7412 7.47721 64.7959 7.48633C64.8597 7.48633 64.9189 7.48633 64.9736 7.48633C65.0283 7.48633 65.0693 7.48633 65.0967 7.48633C65.2881 7.48633 65.4613 7.47721 65.6162 7.45898C65.7803 7.44076 65.9352 7.41797 66.0811 7.39062C66.236 7.35417 66.3864 7.30859 66.5322 7.25391C66.6872 7.19922 66.8604 7.13542 67.0518 7.0625C67.1702 7.01693 67.2887 6.94401 67.4072 6.84375C67.5257 6.73438 67.6396 6.62956 67.749 6.5293C67.8675 6.41992 67.986 6.32878 68.1045 6.25586C68.223 6.17383 68.346 6.13281 68.4736 6.13281C68.6468 6.13281 68.7334 6.22852 68.7334 6.41992C68.7334 6.49284 68.7288 6.55664 68.7197 6.61133C68.7106 6.66602 68.6878 6.72982 68.6514 6.80273L65.917 11.8613V12.0664C66.4183 12.2396 66.8649 12.4811 67.2568 12.791H67.3389L69.5811 12.4629L69.7178 12.4082C69.7451 12.3262 69.7907 12.1986 69.8545 12.0254C69.9274 11.8522 70.0049 11.6699 70.0869 11.4785C70.1689 11.278 70.2464 11.0911 70.3193 10.918C70.3923 10.7357 70.4378 10.6081 70.4561 10.5352C70.4743 10.5169 70.4971 10.4714 70.5244 10.3984C70.5518 10.3255 70.5745 10.2799 70.5928 10.2617L71.7822 7.19922C71.8187 7.13542 71.8779 7.07617 71.96 7.02148C72.0511 6.9668 72.1286 6.93945 72.1924 6.93945C72.3109 6.93945 72.3838 6.99414 72.4111 7.10352C72.4476 7.20378 72.4658 7.29492 72.4658 7.37695V7.47266L71.0576 11.0684C71.0212 11.1413 70.9756 11.237 70.9209 11.3555C70.8753 11.4648 70.8298 11.5742 70.7842 11.6836C70.7386 11.793 70.6976 11.8978 70.6611 11.998C70.6338 12.0983 70.611 12.1667 70.5928 12.2031C70.6201 12.2031 70.6611 12.1986 70.7158 12.1895C70.7705 12.1712 70.8298 12.1576 70.8936 12.1484C70.9574 12.1393 71.0166 12.1257 71.0713 12.1074C71.1351 12.0892 71.1715 12.0755 71.1807 12.0664C71.2445 12.0482 71.3493 12.0117 71.4951 11.957C71.641 11.9023 71.7959 11.8431 71.96 11.7793C72.124 11.7064 72.279 11.6426 72.4248 11.5879C72.5706 11.5332 72.6709 11.4922 72.7256 11.4648C72.7712 11.3919 72.835 11.3281 72.917 11.2734C73.0081 11.2188 73.0993 11.1914 73.1904 11.1914C73.2451 11.1914 73.2907 11.2096 73.3271 11.2461C73.3727 11.2826 73.3955 11.3327 73.3955 11.3965C73.3955 11.4967 73.359 11.5879 73.2861 11.6699C73.2132 11.752 73.1266 11.834 73.0264 11.916C72.9261 11.9889 72.8213 12.0482 72.7119 12.0938C72.6025 12.1393 72.5205 12.1758 72.4658 12.2031L70.3467 12.9414L69.0615 16.4688C69.0433 16.5599 69.016 16.6875 68.9795 16.8516C68.9521 17.0065 68.9066 17.1615 68.8428 17.3164C68.7881 17.4714 68.7152 17.6035 68.624 17.7129C68.5329 17.8223 68.4235 17.877 68.2959 17.877C68.1592 17.877 68.0544 17.7858 67.9814 17.6035C67.9085 17.4212 67.8538 17.1934 67.8174 16.9199C67.79 16.6374 67.7627 16.3275 67.7354 15.9902C67.7171 15.653 67.6807 15.3203 67.626 14.9922C67.5804 14.6641 67.5075 14.3724 67.4072 14.1172C67.307 13.862 67.1657 13.6706 66.9834 13.543C66.9743 13.543 66.9333 13.5384 66.8604 13.5293C66.7874 13.5202 66.7464 13.5156 66.7373 13.5156C66.7008 13.5156 66.6462 13.5202 66.5732 13.5293C66.5094 13.5384 66.473 13.543 66.4639 13.543C66.3727 13.5521 66.2542 13.5658 66.1084 13.584C65.9626 13.5931 65.8213 13.6068 65.6846 13.625C65.557 13.6341 65.443 13.6432 65.3428 13.6523C65.2425 13.6615 65.1924 13.666 65.1924 13.666L65.1377 13.7344L63.7295 16.7285C63.693 16.9746 63.611 17.1842 63.4834 17.3574C63.3558 17.5306 63.2373 17.7266 63.1279 17.9453C63.1006 17.9453 63.0413 17.9544 62.9502 17.9727C62.8682 17.9909 62.818 18 62.7998 18C62.7907 18 62.7588 17.9909 62.7041 17.9727C62.6585 17.9544 62.6221 17.9453 62.5947 17.9453C62.5765 17.9362 62.5492 17.9225 62.5127 17.9043C62.4762 17.8861 62.458 17.8724 62.458 17.8633V17.5352L64.1396 14.1992ZM67.8037 13.4336C67.8037 13.5247 67.8356 13.6706 67.8994 13.8711C67.9632 14.0625 68.0361 14.2767 68.1182 14.5137C68.2093 14.7507 68.2913 14.9831 68.3643 15.2109C68.4463 15.4297 68.501 15.6029 68.5283 15.7305C68.5374 15.694 68.5557 15.6257 68.583 15.5254C68.6195 15.416 68.6559 15.3066 68.6924 15.1973C68.7288 15.0788 68.7607 14.974 68.7881 14.8828C68.8154 14.7826 68.8382 14.7096 68.8564 14.6641C68.8656 14.6549 68.8792 14.6322 68.8975 14.5957C68.9157 14.5592 68.9294 14.5365 68.9385 14.5273C68.9658 14.4362 69.0068 14.3223 69.0615 14.1855C69.1162 14.0488 69.1663 13.9121 69.2119 13.7754C69.2666 13.6387 69.3122 13.5202 69.3486 13.4199C69.3851 13.3197 69.4033 13.2695 69.4033 13.2695V13.1328C69.3851 13.1328 69.3623 13.1328 69.335 13.1328C69.3076 13.1328 69.2848 13.1374 69.2666 13.1465C69.2119 13.1465 69.1117 13.1602 68.9658 13.1875C68.8291 13.2148 68.6833 13.2422 68.5283 13.2695C68.3734 13.2969 68.223 13.3242 68.0771 13.3516C67.9404 13.3789 67.8493 13.3926 67.8037 13.3926V13.4336ZM63.5381 12.668C63.6657 12.7682 63.8206 12.8366 64.0029 12.873C64.1943 12.9095 64.3721 12.9277 64.5361 12.9277C64.609 12.9277 64.6683 12.8867 64.7139 12.8047C64.7594 12.7135 64.7822 12.6361 64.7822 12.5723V12.5312C64.764 12.5312 64.7002 12.5221 64.5908 12.5039C64.4814 12.4766 64.4176 12.4629 64.3994 12.4629C64.3903 12.4629 64.3447 12.4674 64.2627 12.4766C64.1807 12.4766 64.085 12.4857 63.9756 12.5039C63.8753 12.5221 63.7796 12.5449 63.6885 12.5723C63.5973 12.5996 63.5472 12.6315 63.5381 12.668ZM65.6846 12.7227C65.5661 12.7227 65.5068 12.791 65.5068 12.9277H66.0537L66.1221 12.873C66.0583 12.8275 65.9899 12.791 65.917 12.7637C65.8441 12.7363 65.7666 12.7227 65.6846 12.7227ZM72.6299 16.9336C72.6299 16.9245 72.6344 16.8926 72.6436 16.8379C72.6527 16.7832 72.6618 16.7285 72.6709 16.6738C72.68 16.61 72.6891 16.5553 72.6982 16.5098C72.7074 16.4551 72.7119 16.4186 72.7119 16.4004V16.3457V16.2637L72.9033 15.4023C73.0583 15.0742 73.2178 14.7598 73.3818 14.459C73.555 14.1582 73.751 13.8939 73.9697 13.666C74.1885 13.4382 74.4391 13.2559 74.7217 13.1191C75.0133 12.9824 75.3643 12.9141 75.7744 12.9141C75.8564 12.9141 75.9567 12.9414 76.0752 12.9961C76.2028 13.0417 76.3258 13.1009 76.4443 13.1738C76.5719 13.2467 76.6859 13.3242 76.7861 13.4062C76.8955 13.4792 76.9775 13.5475 77.0322 13.6113C77.3148 13.5658 77.5199 13.543 77.6475 13.543C77.7751 13.5339 77.8844 13.5293 77.9756 13.5293C78.0667 13.5202 78.1624 13.502 78.2627 13.4746C78.3721 13.4473 78.5361 13.388 78.7549 13.2969C78.9098 13.2513 79.0602 13.2285 79.2061 13.2285C79.2699 13.2285 79.3291 13.2559 79.3838 13.3105C79.4476 13.3652 79.4795 13.429 79.4795 13.502C79.4795 13.5931 79.4476 13.6751 79.3838 13.748C79.32 13.821 79.2425 13.8665 79.1514 13.8848L77.4424 14.2676L77.292 14.3359C77.2829 14.8281 77.1735 15.2975 76.9639 15.7441C76.7542 16.1908 76.4762 16.5827 76.1299 16.9199C75.7835 17.2572 75.3825 17.526 74.9268 17.7266C74.471 17.918 73.9971 18.0137 73.5049 18.0137C73.4684 18.0137 73.4092 18.0091 73.3271 18C73.2451 18 73.1904 18 73.1631 18C72.9626 17.918 72.8213 17.7676 72.7393 17.5488C72.6663 17.3301 72.6299 17.125 72.6299 16.9336ZM73.5049 17.207C73.514 17.2526 73.5505 17.2754 73.6143 17.2754C73.6781 17.2754 73.7236 17.2754 73.751 17.2754C74.0791 17.2754 74.4163 17.1934 74.7627 17.0293C75.109 16.8561 75.4189 16.6374 75.6924 16.373C75.9749 16.0996 76.2028 15.7943 76.376 15.457C76.5583 15.1107 76.6494 14.7643 76.6494 14.418C76.3577 14.418 76.0661 14.3952 75.7744 14.3496C75.4827 14.2949 75.2002 14.2676 74.9268 14.2676H74.9131L73.7783 15.4707C73.7145 15.5345 73.6644 15.6211 73.6279 15.7305C73.5915 15.8398 73.5641 15.9583 73.5459 16.0859C73.5277 16.2135 73.514 16.3411 73.5049 16.4688C73.4958 16.5964 73.4912 16.7103 73.4912 16.8105C73.4912 16.8379 73.4912 16.9017 73.4912 17.002C73.4912 17.1022 73.4958 17.1706 73.5049 17.207ZM79.2881 17.6719C79.3154 17.444 79.3519 17.2298 79.3975 17.0293C79.443 16.8197 79.4932 16.6146 79.5479 16.4141C79.6025 16.2135 79.6618 16.0085 79.7256 15.7988C79.7985 15.5801 79.876 15.334 79.958 15.0605V14.9922C79.5934 15.2018 79.3337 15.3066 79.1787 15.3066C79.0329 15.3066 78.96 15.252 78.96 15.1426C78.9508 15.0332 78.9964 14.8874 79.0967 14.7051C79.2061 14.5228 79.3337 14.3542 79.4795 14.1992C79.6344 14.0443 79.7894 13.9212 79.9443 13.8301C80.1084 13.7389 80.236 13.7253 80.3271 13.7891C80.4365 13.7891 80.5231 13.8073 80.5869 13.8438C80.6598 13.8802 80.7373 13.9349 80.8193 14.0078C81.029 13.8438 81.2249 13.7116 81.4072 13.6113C81.5895 13.5111 81.8083 13.4609 82.0635 13.4609C82.4645 13.4609 82.7653 13.5521 82.9658 13.7344C83.1755 13.9167 83.3258 14.2083 83.417 14.6094C83.5719 14.4544 83.7132 14.3132 83.8408 14.1855C83.9684 14.0488 84.1051 13.9349 84.251 13.8438C84.4059 13.7435 84.57 13.6706 84.7432 13.625C84.9163 13.5703 85.1123 13.543 85.3311 13.543C85.5133 13.543 85.6911 13.6113 85.8643 13.748C86.0374 13.8848 86.1605 14.0352 86.2334 14.1992C86.2334 14.2357 86.2334 14.3177 86.2334 14.4453C86.2334 14.5729 86.2334 14.6595 86.2334 14.7051C86.2334 15.015 86.1969 15.3158 86.124 15.6074C86.0511 15.89 86.0146 16.1816 86.0146 16.4824C86.0146 16.61 86.0283 16.7422 86.0557 16.8789C86.0921 17.0065 86.1924 17.0703 86.3564 17.0703C86.5752 17.0703 86.7712 17.0247 86.9443 16.9336C87.1266 16.8424 87.2907 16.7331 87.4365 16.6055C87.5915 16.4688 87.7282 16.3229 87.8467 16.168C87.9743 16.013 88.0882 15.8717 88.1885 15.7441C88.2979 15.6074 88.3981 15.4935 88.4893 15.4023C88.5804 15.3112 88.6715 15.2656 88.7627 15.2656C88.8265 15.2656 88.8949 15.293 88.9678 15.3477C89.0498 15.3932 89.0908 15.4525 89.0908 15.5254C89.0908 15.5345 89.0863 15.5482 89.0771 15.5664C89.0771 15.5846 89.0771 15.5983 89.0771 15.6074C88.986 15.89 88.8538 16.1589 88.6807 16.4141C88.5075 16.6693 88.307 16.8971 88.0791 17.0977C87.8512 17.2891 87.596 17.444 87.3135 17.5625C87.04 17.6719 86.7484 17.7266 86.4385 17.7266C86.1468 17.7266 85.9007 17.6901 85.7002 17.6172C85.4997 17.5352 85.3447 17.3529 85.2354 17.0703C85.2354 17.043 85.2308 16.9837 85.2217 16.8926C85.2217 16.7923 85.2217 16.7331 85.2217 16.7148C85.2217 16.3685 85.2536 16.0358 85.3174 15.7168C85.3903 15.3978 85.4268 15.0742 85.4268 14.7461C85.4268 14.7188 85.4222 14.6595 85.4131 14.5684C85.4131 14.4772 85.4131 14.418 85.4131 14.3906C85.3766 14.3451 85.3174 14.3223 85.2354 14.3223C85.1624 14.3223 85.0941 14.3223 85.0303 14.3223C84.8389 14.3223 84.6566 14.3906 84.4834 14.5273C84.3102 14.6641 84.1507 14.8372 84.0049 15.0469C83.859 15.2565 83.7269 15.4935 83.6084 15.7578C83.499 16.013 83.4033 16.2728 83.3213 16.5371C83.2393 16.7923 83.1709 17.0339 83.1162 17.2617C83.0706 17.4805 83.0433 17.6628 83.0342 17.8086L82.8838 17.9453H82.4189C82.3369 17.9453 82.2913 17.9043 82.2822 17.8223C82.2822 17.7311 82.2822 17.6628 82.2822 17.6172C82.2822 17.3984 82.2959 17.1797 82.3232 16.9609C82.3597 16.7331 82.3962 16.5098 82.4326 16.291C82.4782 16.0632 82.5192 15.8353 82.5557 15.6074C82.5921 15.3796 82.6149 15.1562 82.624 14.9375C82.6149 14.8646 82.6058 14.7871 82.5967 14.7051C82.5876 14.6139 82.5693 14.5319 82.542 14.459C82.5146 14.3861 82.4736 14.3268 82.4189 14.2812C82.3643 14.2266 82.2868 14.1992 82.1865 14.1992C82.0407 14.1992 81.8994 14.2266 81.7627 14.2812C81.626 14.3359 81.4984 14.4089 81.3799 14.5C81.2705 14.582 81.1702 14.6868 81.0791 14.8145C80.9971 14.9329 80.9378 15.0651 80.9014 15.2109L80.0811 17.8633L79.958 18C79.958 18 79.9307 18 79.876 18C79.8213 18.0091 79.7803 18.0137 79.7529 18.0137C79.6527 18.0137 79.5479 18.0046 79.4385 17.9863C79.3382 17.959 79.2881 17.8724 79.2881 17.7266V17.6719ZM88.6396 15.8672C88.6579 15.8125 88.6852 15.7168 88.7217 15.5801C88.7673 15.4342 88.8083 15.2793 88.8447 15.1152C88.8903 14.9512 88.9268 14.7962 88.9541 14.6504C88.9906 14.4954 89.0179 14.3906 89.0361 14.3359C89.0908 14.1172 89.1546 13.8802 89.2275 13.625C89.3096 13.3698 89.4189 13.1328 89.5557 12.9141C89.6924 12.6953 89.8656 12.5176 90.0752 12.3809C90.2939 12.235 90.5628 12.1621 90.8818 12.1621C91.0003 12.1621 91.0824 12.2077 91.1279 12.2988C91.1826 12.3809 91.2282 12.472 91.2646 12.5723C91.2646 12.6087 91.2646 12.6771 91.2646 12.7773C91.2738 12.8685 91.2783 12.9323 91.2783 12.9688C91.2783 13.3607 91.2373 13.707 91.1553 14.0078C91.0824 14.3086 90.9639 14.5866 90.7998 14.8418C90.6449 15.097 90.4535 15.3385 90.2256 15.5664C89.9977 15.7852 89.738 16.0176 89.4463 16.2637C89.4372 16.291 89.4235 16.3366 89.4053 16.4004C89.387 16.4642 89.3779 16.5098 89.3779 16.5371V16.5645C89.3779 16.7285 89.4053 16.8607 89.46 16.9609C89.5146 17.0612 89.5876 17.1432 89.6787 17.207C89.779 17.2617 89.8883 17.2982 90.0068 17.3164C90.1344 17.3255 90.2712 17.3301 90.417 17.3301C90.8454 17.3301 91.2555 17.2708 91.6475 17.1523C92.0394 17.0339 92.3994 16.8424 92.7275 16.5781C92.7731 16.5326 92.8278 16.4688 92.8916 16.3867C92.9645 16.2956 93.0374 16.2044 93.1104 16.1133C93.1833 16.0221 93.2607 15.9447 93.3428 15.8809C93.4248 15.8079 93.5114 15.7715 93.6025 15.7715C93.6937 15.7715 93.7484 15.8079 93.7666 15.8809C93.7848 15.9538 93.7939 16.0267 93.7939 16.0996C93.7939 16.3001 93.7301 16.4915 93.6025 16.6738C93.484 16.847 93.3245 17.0065 93.124 17.1523C92.9326 17.2891 92.7093 17.4121 92.4541 17.5215C92.208 17.6309 91.9619 17.722 91.7158 17.7949C91.4697 17.8678 91.2327 17.9225 91.0049 17.959C90.7861 17.9954 90.5993 18.0137 90.4443 18.0137C89.9613 18.0137 89.5557 17.9362 89.2275 17.7812C88.9085 17.6172 88.6898 17.2936 88.5713 16.8105L88.6396 15.8672ZM90.5947 13.1738C90.4124 13.3379 90.2666 13.4883 90.1572 13.625C90.057 13.7526 89.9749 13.8893 89.9111 14.0352C89.8564 14.1719 89.8063 14.3223 89.7607 14.4863C89.7243 14.6504 89.6833 14.8418 89.6377 15.0605C89.8109 14.9238 89.9521 14.7871 90.0615 14.6504C90.18 14.5137 90.2757 14.3724 90.3486 14.2266C90.4215 14.0807 90.4762 13.9258 90.5127 13.7617C90.5492 13.5885 90.5765 13.3926 90.5947 13.1738Z" fill="black"/>
<path d="M110.75 8C104 9.5 102.425 14.1275 100.865 18.005L102.283 18.5L102.995 16.775C103.355 16.9025 103.73 17 104 17C112.25 17 114.5 4.25 114.5 4.25C113.75 5.75 108.5 5.9375 104.75 6.6875C101 7.4375 99.5 10.625 99.5 12.125C99.5 13.625 100.812 14.9375 100.812 14.9375C103.25 8 110.75 8 110.75 8Z" fill="black"/>
</svg>
